<?xml version="1.0" encoding="UTF-8" standalone="no"?>
<!DOCTYPE svg PUBLIC "-//W3C//DTD SVG 1.1//EN"
 "http://www.w3.org/Graphics/SVG/1.1/DTD/svg11.dtd">
<!-- Generated by graphviz version 2.40.1 (20161225.0304)
 -->
<!-- Title: dependencies Pages: 1 -->
<svg width="504pt" height="284pt"
 viewBox="0.00 0.00 504.00 284.00" xmlns="http://www.w3.org/2000/svg" xmlns:xlink="http://www.w3.org/1999/xlink">
<g id="graph0" class="graph" transform="scale(1 1) rotate(0) translate(4 280)">
<title>dependencies</title>
<polygon fill="#ffffff" stroke="transparent" points="-4,4 -4,-280 500,-280 500,4 -4,4"/>
<text text-anchor="start" x="227.0091" y="-42.4" font-family="sans-serif" font-weight="bold" font-size="14.00" fill="#000000">Legend</text>
<polygon fill="#ffffb3" stroke="transparent" points="14,-10 14,-30 34,-30 34,-10 14,-10"/>
<text text-anchor="start" x="37.629" y="-15.4" font-family="sans-serif" font-size="14.00" fill="#000000"> &#160;Declarations</text>
<polygon fill="#8dd3c7" stroke="transparent" points="127,-10 127,-30 147,-30 147,-10 127,-10"/>
<text text-anchor="start" x="150.7251" y="-15.4" font-family="sans-serif" font-size="14.00" fill="#000000"> &#160;Module</text>
<polygon fill="#80b1d3" stroke="transparent" points="213,-10 213,-30 233,-30 233,-10 213,-10"/>
<text text-anchor="start" x="236.7812" y="-15.4" font-family="sans-serif" font-size="14.00" fill="#000000"> &#160;Bootstrap</text>
<polygon fill="#fdb462" stroke="transparent" points="310,-10 310,-30 330,-30 330,-10 310,-10"/>
<text text-anchor="start" x="333.6732" y="-15.4" font-family="sans-serif" font-size="14.00" fill="#000000"> &#160;Providers</text>
<polygon fill="#fb8072" stroke="transparent" points="406,-10 406,-30 426,-30 426,-10 406,-10"/>
<text text-anchor="start" x="429.7258" y="-15.4" font-family="sans-serif" font-size="14.00" fill="#000000"> &#160;Exports</text>
<g id="clust1" class="cluster">
<title>cluster_DropdownModule</title>
<polygon fill="none" stroke="#000000" stroke-dasharray="1,5" points="58.5,-70 58.5,-268 437.5,-268 437.5,-70 58.5,-70"/>
</g>
<g id="clust2" class="cluster">
<title>cluster_DropdownModule_declarations</title>
<polygon fill="none" stroke="#000000" points="72.5,-78 72.5,-130 424.5,-130 424.5,-78 72.5,-78"/>
</g>
<g id="clust7" class="cluster">
<title>cluster_DropdownModule_exports</title>
<polygon fill="none" stroke="#000000" points="66.5,-208 66.5,-260 429.5,-260 429.5,-208 66.5,-208"/>
</g>
<!-- Dropdown -->
<g id="node1" class="node">
<title>Dropdown</title>
<polygon fill="#ffffb3" stroke="#000000" points="416.3739,-122 340.6261,-122 340.6261,-86 416.3739,-86 416.3739,-122"/>
<text text-anchor="middle" x="378.5" y="-99.8" font-family="Times,serif" font-size="14.00" fill="#000000">Dropdown</text>
</g>
<!-- DropdownModule -->
<g id="node4" class="node">
<title>DropdownModule</title>
<polygon fill="#8dd3c7" stroke="#000000" points="324.4244,-187 321.4244,-191 300.4244,-191 297.4244,-187 204.5756,-187 204.5756,-151 324.4244,-151 324.4244,-187"/>
<text text-anchor="middle" x="264.5" y="-164.8" font-family="Times,serif" font-size="14.00" fill="#000000">DropdownModule</text>
</g>
<!-- Dropdown&#45;&gt;DropdownModule -->
<g id="edge1" class="edge">
<title>Dropdown&#45;&gt;DropdownModule</title>
<path fill="none" stroke="#000000" d="M391.5623,-122.0225C391.5623,-139.3734 391.5623,-163 391.5623,-163 391.5623,-163 334.3105,-163 334.3105,-163"/>
<polygon fill="#000000" stroke="#000000" points="334.3106,-159.5001 324.3105,-163 334.3105,-166.5001 334.3106,-159.5001"/>
</g>
<!-- DropdownToggle -->
<g id="node2" class="node">
<title>DropdownToggle</title>
<polygon fill="#ffffb3" stroke="#000000" points="322.0325,-122 206.9675,-122 206.9675,-86 322.0325,-86 322.0325,-122"/>
<text text-anchor="middle" x="264.5" y="-99.8" font-family="Times,serif" font-size="14.00" fill="#000000">DropdownToggle</text>
</g>
<!-- DropdownToggle&#45;&gt;DropdownModule -->
<g id="edge2" class="edge">
<title>DropdownToggle&#45;&gt;DropdownModule</title>
<path fill="none" stroke="#000000" d="M264.5,-122.1061C264.5,-122.1061 264.5,-140.991 264.5,-140.991"/>
<polygon fill="#000000" stroke="#000000" points="261.0001,-140.9909 264.5,-150.991 268.0001,-140.991 261.0001,-140.9909"/>
</g>
<!-- DropdownMenu -->
<g id="node3" class="node">
<title>DropdownMenu</title>
<polygon fill="#ffffb3" stroke="#000000" points="188.534,-122 80.466,-122 80.466,-86 188.534,-86 188.534,-122"/>
<text text-anchor="middle" x="134.5" y="-99.8" font-family="Times,serif" font-size="14.00" fill="#000000">DropdownMenu</text>
</g>
<!-- DropdownMenu&#45;&gt;DropdownModule -->
<g id="edge3" class="edge">
<title>DropdownMenu&#45;&gt;DropdownModule</title>
<path fill="none" stroke="#000000" d="M151.0888,-122.0225C151.0888,-139.3734 151.0888,-163 151.0888,-163 151.0888,-163 194.4735,-163 194.4735,-163"/>
<polygon fill="#000000" stroke="#000000" points="194.4735,-166.5001 204.4735,-163 194.4735,-159.5001 194.4735,-166.5001"/>
</g>
<!-- Dropdown  -->
<g id="node5" class="node">
<title>Dropdown </title>
<polygon fill="#fb8072" stroke="#000000" points="421.3747,-252 341.6253,-252 341.6253,-216 421.3747,-216 421.3747,-252"/>
<text text-anchor="middle" x="381.5" y="-229.8" font-family="Times,serif" font-size="14.00" fill="#000000">Dropdown </text>
</g>
<!-- DropdownModule&#45;&gt;Dropdown  -->
<g id="edge4" class="edge">
<title>DropdownModule&#45;&gt;Dropdown </title>
<path fill="none" stroke="#000000" stroke-dasharray="5,2" d="M324.2387,-175C346.6009,-175 366.6877,-175 366.6877,-175 366.6877,-175 366.6877,-205.9775 366.6877,-205.9775"/>
<polygon fill="#000000" stroke="#000000" points="363.1878,-205.9774 366.6877,-215.9775 370.1878,-205.9775 363.1878,-205.9774"/>
</g>
<!-- DropdownToggle  -->
<g id="node6" class="node">
<title>DropdownToggle </title>
<polygon fill="#fb8072" stroke="#000000" points="324.0316,-252 204.9684,-252 204.9684,-216 324.0316,-216 324.0316,-252"/>
<text text-anchor="middle" x="264.5" y="-229.8" font-family="Times,serif" font-size="14.00" fill="#000000">DropdownToggle </text>
</g>
<!-- DropdownModule&#45;&gt;DropdownToggle  -->
<g id="edge5" class="edge">
<title>DropdownModule&#45;&gt;DropdownToggle </title>
<path fill="none" stroke="#000000" stroke-dasharray="5,2" d="M264.5,-187.1061C264.5,-187.1061 264.5,-205.991 264.5,-205.991"/>
<polygon fill="#000000" stroke="#000000" points="261.0001,-205.9909 264.5,-215.991 268.0001,-205.991 261.0001,-205.9909"/>
</g>
<!-- DropdownMenu  -->
<g id="node7" class="node">
<title>DropdownMenu </title>
<polygon fill="#fb8072" stroke="#000000" points="186.533,-252 74.467,-252 74.467,-216 186.533,-216 186.533,-252"/>
<text text-anchor="middle" x="130.5" y="-229.8" font-family="Times,serif" font-size="14.00" fill="#000000">DropdownMenu </text>
</g>
<!-- DropdownModule&#45;&gt;DropdownMenu  -->
<g id="edge6" class="edge">
<title>DropdownModule&#45;&gt;DropdownMenu </title>
<path fill="none" stroke="#000000" stroke-dasharray="5,2" d="M204.3906,-175C163.0823,-175 115.6612,-175 115.6612,-175 115.6612,-175 115.6612,-205.9775 115.6612,-205.9775"/>
<polygon fill="#000000" stroke="#000000" points="112.1613,-205.9774 115.6612,-215.9775 119.1613,-205.9775 112.1613,-205.9774"/>
</g>
</g>
</svg>
