<?xml version="1.0" encoding="UTF-8" standalone="no"?>
<!DOCTYPE svg PUBLIC "-//W3C//DTD SVG 1.1//EN"
 "http://www.w3.org/Graphics/SVG/1.1/DTD/svg11.dtd">
<!-- Generated by graphviz version 2.40.1 (20161225.0304)
 -->
<!-- Title: dependencies Pages: 1 -->
<svg width="1556pt" height="284pt"
 viewBox="0.00 0.00 1556.00 284.00" xmlns="http://www.w3.org/2000/svg" xmlns:xlink="http://www.w3.org/1999/xlink">
<g id="graph0" class="graph" transform="scale(1 1) rotate(0) translate(4 280)">
<title>dependencies</title>
<polygon fill="#ffffff" stroke="transparent" points="-4,4 -4,-280 1552,-280 1552,4 -4,4"/>
<text text-anchor="start" x="753.0091" y="-42.4" font-family="sans-serif" font-weight="bold" font-size="14.00" fill="#000000">Legend</text>
<polygon fill="#ffffb3" stroke="transparent" points="540,-10 540,-30 560,-30 560,-10 540,-10"/>
<text text-anchor="start" x="563.629" y="-15.4" font-family="sans-serif" font-size="14.00" fill="#000000"> &#160;Declarations</text>
<polygon fill="#8dd3c7" stroke="transparent" points="653,-10 653,-30 673,-30 673,-10 653,-10"/>
<text text-anchor="start" x="676.7251" y="-15.4" font-family="sans-serif" font-size="14.00" fill="#000000"> &#160;Module</text>
<polygon fill="#80b1d3" stroke="transparent" points="739,-10 739,-30 759,-30 759,-10 739,-10"/>
<text text-anchor="start" x="762.7812" y="-15.4" font-family="sans-serif" font-size="14.00" fill="#000000"> &#160;Bootstrap</text>
<polygon fill="#fdb462" stroke="transparent" points="836,-10 836,-30 856,-30 856,-10 836,-10"/>
<text text-anchor="start" x="859.6732" y="-15.4" font-family="sans-serif" font-size="14.00" fill="#000000"> &#160;Providers</text>
<polygon fill="#fb8072" stroke="transparent" points="932,-10 932,-30 952,-30 952,-10 932,-10"/>
<text text-anchor="start" x="955.7258" y="-15.4" font-family="sans-serif" font-size="14.00" fill="#000000"> &#160;Exports</text>
<g id="clust1" class="cluster">
<title>cluster_DashboardModule</title>
<polygon fill="none" stroke="#000000" stroke-dasharray="1,5" points="8,-70 8,-268 1540,-268 1540,-70 8,-70"/>
</g>
<g id="clust2" class="cluster">
<title>cluster_DashboardModule_declarations</title>
<polygon fill="none" stroke="#000000" points="372,-78 372,-130 1532,-130 1532,-78 372,-78"/>
</g>
<g id="clust12" class="cluster">
<title>cluster_DashboardModule_exports</title>
<polygon fill="none" stroke="#000000" points="748,-208 748,-260 910,-260 910,-208 748,-208"/>
</g>
<g id="clust14" class="cluster">
<title>cluster_DashboardModule_providers</title>
<polygon fill="none" stroke="#000000" points="16,-78 16,-130 364,-130 364,-78 16,-78"/>
</g>
<!-- DashboardComponent -->
<g id="node1" class="node">
<title>DashboardComponent</title>
<polygon fill="#ffffb3" stroke="#000000" points="1523.9734,-122 1382.0266,-122 1382.0266,-86 1523.9734,-86 1523.9734,-122"/>
<text text-anchor="middle" x="1453" y="-99.8" font-family="Times,serif" font-size="14.00" fill="#000000">DashboardComponent</text>
</g>
<!-- DashboardModule -->
<g id="node9" class="node">
<title>DashboardModule</title>
<polygon fill="#8dd3c7" stroke="#000000" points="889.191,-187 886.191,-191 865.191,-191 862.191,-187 768.809,-187 768.809,-151 889.191,-151 889.191,-187"/>
<text text-anchor="middle" x="829" y="-164.8" font-family="Times,serif" font-size="14.00" fill="#000000">DashboardModule</text>
</g>
<!-- DashboardComponent&#45;&gt;DashboardModule -->
<g id="edge1" class="edge">
<title>DashboardComponent&#45;&gt;DashboardModule</title>
<path fill="none" stroke="#000000" d="M1453,-122.0109C1453,-144.4852 1453,-180 1453,-180 1453,-180 899.115,-180 899.115,-180"/>
<polygon fill="#000000" stroke="#000000" points="899.115,-176.5001 889.115,-180 899.1149,-183.5001 899.115,-176.5001"/>
</g>
<!-- SidebarComponent -->
<g id="node2" class="node">
<title>SidebarComponent</title>
<polygon fill="#ffffb3" stroke="#000000" points="1364.0954,-122 1239.9046,-122 1239.9046,-86 1364.0954,-86 1364.0954,-122"/>
<text text-anchor="middle" x="1302" y="-99.8" font-family="Times,serif" font-size="14.00" fill="#000000">SidebarComponent</text>
</g>
<!-- SidebarComponent&#45;&gt;DashboardModule -->
<g id="edge2" class="edge">
<title>SidebarComponent&#45;&gt;DashboardModule</title>
<path fill="none" stroke="#000000" d="M1302,-122.1289C1302,-142.5724 1302,-173 1302,-173 1302,-173 899.3862,-173 899.3862,-173"/>
<polygon fill="#000000" stroke="#000000" points="899.3863,-169.5001 889.3862,-173 899.3862,-176.5001 899.3863,-169.5001"/>
</g>
<!-- HeaderComponent -->
<g id="node3" class="node">
<title>HeaderComponent</title>
<polygon fill="#ffffb3" stroke="#000000" points="1221.7437,-122 1100.2563,-122 1100.2563,-86 1221.7437,-86 1221.7437,-122"/>
<text text-anchor="middle" x="1161" y="-99.8" font-family="Times,serif" font-size="14.00" fill="#000000">HeaderComponent</text>
</g>
<!-- HeaderComponent&#45;&gt;DashboardModule -->
<g id="edge3" class="edge">
<title>HeaderComponent&#45;&gt;DashboardModule</title>
<path fill="none" stroke="#000000" d="M1161,-122.2667C1161,-140.5552 1161,-166 1161,-166 1161,-166 899.1227,-166 899.1227,-166"/>
<polygon fill="#000000" stroke="#000000" points="899.1227,-162.5001 889.1227,-166 899.1227,-169.5001 899.1227,-162.5001"/>
</g>
<!-- MonthComponent -->
<g id="node4" class="node">
<title>MonthComponent</title>
<polygon fill="#ffffb3" stroke="#000000" points="1082.1681,-122 963.8319,-122 963.8319,-86 1082.1681,-86 1082.1681,-122"/>
<text text-anchor="middle" x="1023" y="-99.8" font-family="Times,serif" font-size="14.00" fill="#000000">MonthComponent</text>
</g>
<!-- MonthComponent&#45;&gt;DashboardModule -->
<g id="edge4" class="edge">
<title>MonthComponent&#45;&gt;DashboardModule</title>
<path fill="none" stroke="#000000" d="M1023,-122.0091C1023,-138.0494 1023,-159 1023,-159 1023,-159 899.3194,-159 899.3194,-159"/>
<polygon fill="#000000" stroke="#000000" points="899.3194,-155.5001 889.3194,-159 899.3193,-162.5001 899.3194,-155.5001"/>
</g>
<!-- DayComponent -->
<g id="node5" class="node">
<title>DayComponent</title>
<polygon fill="#ffffb3" stroke="#000000" points="945.1542,-122 840.8458,-122 840.8458,-86 945.1542,-86 945.1542,-122"/>
<text text-anchor="middle" x="893" y="-99.8" font-family="Times,serif" font-size="14.00" fill="#000000">DayComponent</text>
</g>
<!-- DayComponent&#45;&gt;DashboardModule -->
<g id="edge5" class="edge">
<title>DayComponent&#45;&gt;DashboardModule</title>
<path fill="none" stroke="#000000" d="M864.8843,-122.1061C864.8843,-122.1061 864.8843,-140.991 864.8843,-140.991"/>
<polygon fill="#000000" stroke="#000000" points="861.3844,-140.9909 864.8843,-150.991 868.3844,-140.991 861.3844,-140.9909"/>
</g>
<!-- WeekComponent -->
<g id="node6" class="node">
<title>WeekComponent</title>
<polygon fill="#ffffb3" stroke="#000000" points="822.9762,-122 709.0238,-122 709.0238,-86 822.9762,-86 822.9762,-122"/>
<text text-anchor="middle" x="766" y="-99.8" font-family="Times,serif" font-size="14.00" fill="#000000">WeekComponent</text>
</g>
<!-- WeekComponent&#45;&gt;DashboardModule -->
<g id="edge6" class="edge">
<title>WeekComponent&#45;&gt;DashboardModule</title>
<path fill="none" stroke="#000000" d="M795.9463,-122.1061C795.9463,-122.1061 795.9463,-140.991 795.9463,-140.991"/>
<polygon fill="#000000" stroke="#000000" points="792.4464,-140.9909 795.9463,-150.991 799.4464,-140.991 792.4464,-140.9909"/>
</g>
<!-- EventPopoverComponent -->
<g id="node7" class="node">
<title>EventPopoverComponent</title>
<polygon fill="#ffffb3" stroke="#000000" points="691.1484,-122 530.8516,-122 530.8516,-86 691.1484,-86 691.1484,-122"/>
<text text-anchor="middle" x="611" y="-99.8" font-family="Times,serif" font-size="14.00" fill="#000000">EventPopoverComponent</text>
</g>
<!-- EventPopoverComponent&#45;&gt;DashboardModule -->
<g id="edge7" class="edge">
<title>EventPopoverComponent&#45;&gt;DashboardModule</title>
<path fill="none" stroke="#000000" d="M611,-122.0091C611,-138.0494 611,-159 611,-159 611,-159 758.8535,-159 758.8535,-159"/>
<polygon fill="#000000" stroke="#000000" points="758.8535,-162.5001 768.8535,-159 758.8534,-155.5001 758.8535,-162.5001"/>
</g>
<!-- TodoListComponent -->
<g id="node8" class="node">
<title>TodoListComponent</title>
<polygon fill="#ffffb3" stroke="#000000" points="512.1638,-122 379.8362,-122 379.8362,-86 512.1638,-86 512.1638,-122"/>
<text text-anchor="middle" x="446" y="-99.8" font-family="Times,serif" font-size="14.00" fill="#000000">TodoListComponent</text>
</g>
<!-- TodoListComponent&#45;&gt;DashboardModule -->
<g id="edge8" class="edge">
<title>TodoListComponent&#45;&gt;DashboardModule</title>
<path fill="none" stroke="#000000" d="M446,-122.2667C446,-140.5552 446,-166 446,-166 446,-166 758.7349,-166 758.7349,-166"/>
<polygon fill="#000000" stroke="#000000" points="758.735,-169.5001 768.7349,-166 758.7349,-162.5001 758.735,-169.5001"/>
</g>
<!-- DashboardComponent  -->
<g id="node10" class="node">
<title>DashboardComponent </title>
<polygon fill="#fb8072" stroke="#000000" points="901.9742,-252 756.0258,-252 756.0258,-216 901.9742,-216 901.9742,-252"/>
<text text-anchor="middle" x="829" y="-229.8" font-family="Times,serif" font-size="14.00" fill="#000000">DashboardComponent </text>
</g>
<!-- DashboardModule&#45;&gt;DashboardComponent  -->
<g id="edge9" class="edge">
<title>DashboardModule&#45;&gt;DashboardComponent </title>
<path fill="none" stroke="#000000" stroke-dasharray="5,2" d="M808.9682,-187.1061C808.9682,-187.1061 808.9682,-205.991 808.9682,-205.991"/>
<polygon fill="#000000" stroke="#000000" points="805.4683,-205.9909 808.9682,-215.991 812.4683,-205.991 805.4683,-205.9909"/>
</g>
<!-- DashboardModule&#45;&gt;DashboardComponent  -->
<g id="edge10" class="edge">
<title>DashboardModule&#45;&gt;DashboardComponent </title>
<path fill="none" stroke="#000000" stroke-dasharray="1,5" d="M849.0318,-187.1061C849.0318,-187.1061 849.0318,-205.991 849.0318,-205.991"/>
<polygon fill="#000000" stroke="#000000" points="845.5319,-205.9909 849.0318,-215.991 852.5319,-205.991 845.5319,-205.9909"/>
</g>
<!-- DashboardService -->
<g id="node11" class="node">
<title>DashboardService</title>
<ellipse fill="#fdb462" stroke="#000000" cx="274" cy="-104" rx="81.6423" ry="18"/>
<text text-anchor="middle" x="274" y="-99.8" font-family="Times,serif" font-size="14.00" fill="#000000">DashboardService</text>
</g>
<!-- DashboardService&#45;&gt;DashboardModule -->
<g id="edge11" class="edge">
<title>DashboardService&#45;&gt;DashboardModule</title>
<path fill="none" stroke="#000000" d="M274,-122.1289C274,-142.5724 274,-173 274,-173 274,-173 758.8136,-173 758.8136,-173"/>
<polygon fill="#000000" stroke="#000000" points="758.8136,-176.5001 768.8136,-173 758.8136,-169.5001 758.8136,-176.5001"/>
</g>
<!-- TodoListService -->
<g id="node12" class="node">
<title>TodoListService</title>
<ellipse fill="#fdb462" stroke="#000000" cx="99" cy="-104" rx="75.2983" ry="18"/>
<text text-anchor="middle" x="99" y="-99.8" font-family="Times,serif" font-size="14.00" fill="#000000">TodoListService</text>
</g>
<!-- TodoListService&#45;&gt;DashboardModule -->
<g id="edge12" class="edge">
<title>TodoListService&#45;&gt;DashboardModule</title>
<path fill="none" stroke="#000000" d="M99,-122.0109C99,-144.4852 99,-180 99,-180 99,-180 758.64,-180 758.64,-180"/>
<polygon fill="#000000" stroke="#000000" points="758.64,-183.5001 768.64,-180 758.6399,-176.5001 758.64,-183.5001"/>
</g>
</g>
</svg>
