<?xml version="1.0" encoding="UTF-8" standalone="no"?>
<!DOCTYPE svg PUBLIC "-//W3C//DTD SVG 1.1//EN"
 "http://www.w3.org/Graphics/SVG/1.1/DTD/svg11.dtd">
<!-- Generated by graphviz version 2.40.1 (20161225.0304)
 -->
<!-- Title: dependencies Pages: 1 -->
<svg width="1733pt" height="284pt"
 viewBox="0.00 0.00 1733.00 284.00" xmlns="http://www.w3.org/2000/svg" xmlns:xlink="http://www.w3.org/1999/xlink">
<g id="graph0" class="graph" transform="scale(1 1) rotate(0) translate(4 280)">
<title>dependencies</title>
<polygon fill="#ffffff" stroke="transparent" points="-4,4 -4,-280 1729,-280 1729,4 -4,4"/>
<text text-anchor="start" x="841.5091" y="-42.4" font-family="sans-serif" font-weight="bold" font-size="14.00" fill="#000000">Legend</text>
<polygon fill="#ffffb3" stroke="transparent" points="628.5,-10 628.5,-30 648.5,-30 648.5,-10 628.5,-10"/>
<text text-anchor="start" x="652.129" y="-15.4" font-family="sans-serif" font-size="14.00" fill="#000000"> &#160;Declarations</text>
<polygon fill="#8dd3c7" stroke="transparent" points="741.5,-10 741.5,-30 761.5,-30 761.5,-10 741.5,-10"/>
<text text-anchor="start" x="765.2251" y="-15.4" font-family="sans-serif" font-size="14.00" fill="#000000"> &#160;Module</text>
<polygon fill="#80b1d3" stroke="transparent" points="827.5,-10 827.5,-30 847.5,-30 847.5,-10 827.5,-10"/>
<text text-anchor="start" x="851.2812" y="-15.4" font-family="sans-serif" font-size="14.00" fill="#000000"> &#160;Bootstrap</text>
<polygon fill="#fdb462" stroke="transparent" points="924.5,-10 924.5,-30 944.5,-30 944.5,-10 924.5,-10"/>
<text text-anchor="start" x="948.1732" y="-15.4" font-family="sans-serif" font-size="14.00" fill="#000000"> &#160;Providers</text>
<polygon fill="#fb8072" stroke="transparent" points="1020.5,-10 1020.5,-30 1040.5,-30 1040.5,-10 1020.5,-10"/>
<text text-anchor="start" x="1044.2258" y="-15.4" font-family="sans-serif" font-size="14.00" fill="#000000"> &#160;Exports</text>
<g id="clust1" class="cluster">
<title>cluster_DashboardModule</title>
<polygon fill="none" stroke="#000000" stroke-dasharray="1,5" points="8,-70 8,-268 1717,-268 1717,-70 8,-70"/>
</g>
<g id="clust2" class="cluster">
<title>cluster_DashboardModule_declarations</title>
<polygon fill="none" stroke="#000000" points="372,-78 372,-130 1709,-130 1709,-78 372,-78"/>
</g>
<g id="clust13" class="cluster">
<title>cluster_DashboardModule_exports</title>
<polygon fill="none" stroke="#000000" points="812,-208 812,-260 974,-260 974,-208 812,-208"/>
</g>
<g id="clust15" class="cluster">
<title>cluster_DashboardModule_providers</title>
<polygon fill="none" stroke="#000000" points="16,-78 16,-130 364,-130 364,-78 16,-78"/>
</g>
<!-- DashboardComponent -->
<g id="node1" class="node">
<title>DashboardComponent</title>
<polygon fill="#ffffb3" stroke="#000000" points="1700.9734,-122 1559.0266,-122 1559.0266,-86 1700.9734,-86 1700.9734,-122"/>
<text text-anchor="middle" x="1630" y="-99.8" font-family="Times,serif" font-size="14.00" fill="#000000">DashboardComponent</text>
</g>
<!-- DashboardModule -->
<g id="node10" class="node">
<title>DashboardModule</title>
<polygon fill="#8dd3c7" stroke="#000000" points="953.191,-187 950.191,-191 929.191,-191 926.191,-187 832.809,-187 832.809,-151 953.191,-151 953.191,-187"/>
<text text-anchor="middle" x="893" y="-164.8" font-family="Times,serif" font-size="14.00" fill="#000000">DashboardModule</text>
</g>
<!-- DashboardComponent&#45;&gt;DashboardModule -->
<g id="edge1" class="edge">
<title>DashboardComponent&#45;&gt;DashboardModule</title>
<path fill="none" stroke="#000000" d="M1630,-122.0109C1630,-144.4852 1630,-180 1630,-180 1630,-180 963.3118,-180 963.3118,-180"/>
<polygon fill="#000000" stroke="#000000" points="963.3118,-176.5001 953.3118,-180 963.3118,-183.5001 963.3118,-176.5001"/>
</g>
<!-- SidebarComponent -->
<g id="node2" class="node">
<title>SidebarComponent</title>
<polygon fill="#ffffb3" stroke="#000000" points="1541.0954,-122 1416.9046,-122 1416.9046,-86 1541.0954,-86 1541.0954,-122"/>
<text text-anchor="middle" x="1479" y="-99.8" font-family="Times,serif" font-size="14.00" fill="#000000">SidebarComponent</text>
</g>
<!-- SidebarComponent&#45;&gt;DashboardModule -->
<g id="edge2" class="edge">
<title>SidebarComponent&#45;&gt;DashboardModule</title>
<path fill="none" stroke="#000000" d="M1479,-122.1289C1479,-142.5724 1479,-173 1479,-173 1479,-173 963.2315,-173 963.2315,-173"/>
<polygon fill="#000000" stroke="#000000" points="963.2315,-169.5001 953.2315,-173 963.2315,-176.5001 963.2315,-169.5001"/>
</g>
<!-- MiniCalendarComponent -->
<g id="node3" class="node">
<title>MiniCalendarComponent</title>
<polygon fill="#ffffb3" stroke="#000000" points="1398.5898,-122 1239.4102,-122 1239.4102,-86 1398.5898,-86 1398.5898,-122"/>
<text text-anchor="middle" x="1319" y="-99.8" font-family="Times,serif" font-size="14.00" fill="#000000">MiniCalendarComponent</text>
</g>
<!-- MiniCalendarComponent&#45;&gt;DashboardModule -->
<g id="edge3" class="edge">
<title>MiniCalendarComponent&#45;&gt;DashboardModule</title>
<path fill="none" stroke="#000000" d="M1319,-122.2667C1319,-140.5552 1319,-166 1319,-166 1319,-166 963.1319,-166 963.1319,-166"/>
<polygon fill="#000000" stroke="#000000" points="963.1319,-162.5001 953.1319,-166 963.1318,-169.5001 963.1319,-162.5001"/>
</g>
<!-- HeaderComponent -->
<g id="node4" class="node">
<title>HeaderComponent</title>
<polygon fill="#ffffb3" stroke="#000000" points="1221.7437,-122 1100.2563,-122 1100.2563,-86 1221.7437,-86 1221.7437,-122"/>
<text text-anchor="middle" x="1161" y="-99.8" font-family="Times,serif" font-size="14.00" fill="#000000">HeaderComponent</text>
</g>
<!-- HeaderComponent&#45;&gt;DashboardModule -->
<g id="edge4" class="edge">
<title>HeaderComponent&#45;&gt;DashboardModule</title>
<path fill="none" stroke="#000000" d="M1161,-122.0091C1161,-138.0494 1161,-159 1161,-159 1161,-159 963.1444,-159 963.1444,-159"/>
<polygon fill="#000000" stroke="#000000" points="963.1445,-155.5001 953.1444,-159 963.1444,-162.5001 963.1445,-155.5001"/>
</g>
<!-- MonthComponent -->
<g id="node5" class="node">
<title>MonthComponent</title>
<polygon fill="#ffffb3" stroke="#000000" points="1082.1681,-122 963.8319,-122 963.8319,-86 1082.1681,-86 1082.1681,-122"/>
<text text-anchor="middle" x="1023" y="-99.8" font-family="Times,serif" font-size="14.00" fill="#000000">MonthComponent</text>
</g>
<!-- MonthComponent&#45;&gt;DashboardModule -->
<g id="edge5" class="edge">
<title>MonthComponent&#45;&gt;DashboardModule</title>
<path fill="none" stroke="#000000" d="M963.7894,-104C955.2112,-104 949.2111,-104 949.2111,-104 949.2111,-104 949.2111,-140.8939 949.2111,-140.8939"/>
<polygon fill="#000000" stroke="#000000" points="945.7112,-140.8938 949.2111,-150.8939 952.7112,-140.8939 945.7112,-140.8938"/>
</g>
<!-- DayComponent -->
<g id="node6" class="node">
<title>DayComponent</title>
<polygon fill="#ffffb3" stroke="#000000" points="945.1542,-122 840.8458,-122 840.8458,-86 945.1542,-86 945.1542,-122"/>
<text text-anchor="middle" x="893" y="-99.8" font-family="Times,serif" font-size="14.00" fill="#000000">DayComponent</text>
</g>
<!-- DayComponent&#45;&gt;DashboardModule -->
<g id="edge6" class="edge">
<title>DayComponent&#45;&gt;DashboardModule</title>
<path fill="none" stroke="#000000" d="M893,-122.1061C893,-122.1061 893,-140.991 893,-140.991"/>
<polygon fill="#000000" stroke="#000000" points="889.5001,-140.9909 893,-150.991 896.5001,-140.991 889.5001,-140.9909"/>
</g>
<!-- WeekComponent -->
<g id="node7" class="node">
<title>WeekComponent</title>
<polygon fill="#ffffb3" stroke="#000000" points="822.9762,-122 709.0238,-122 709.0238,-86 822.9762,-86 822.9762,-122"/>
<text text-anchor="middle" x="766" y="-99.8" font-family="Times,serif" font-size="14.00" fill="#000000">WeekComponent</text>
</g>
<!-- WeekComponent&#45;&gt;DashboardModule -->
<g id="edge7" class="edge">
<title>WeekComponent&#45;&gt;DashboardModule</title>
<path fill="none" stroke="#000000" d="M823.1401,-104C831.1894,-104 836.7889,-104 836.7889,-104 836.7889,-104 836.7889,-140.8939 836.7889,-140.8939"/>
<polygon fill="#000000" stroke="#000000" points="833.289,-140.8938 836.7889,-150.8939 840.289,-140.8939 833.289,-140.8938"/>
</g>
<!-- EventPopoverComponent -->
<g id="node8" class="node">
<title>EventPopoverComponent</title>
<polygon fill="#ffffb3" stroke="#000000" points="691.1484,-122 530.8516,-122 530.8516,-86 691.1484,-86 691.1484,-122"/>
<text text-anchor="middle" x="611" y="-99.8" font-family="Times,serif" font-size="14.00" fill="#000000">EventPopoverComponent</text>
</g>
<!-- EventPopoverComponent&#45;&gt;DashboardModule -->
<g id="edge8" class="edge">
<title>EventPopoverComponent&#45;&gt;DashboardModule</title>
<path fill="none" stroke="#000000" d="M611,-122.0091C611,-138.0494 611,-159 611,-159 611,-159 822.8498,-159 822.8498,-159"/>
<polygon fill="#000000" stroke="#000000" points="822.8499,-162.5001 832.8498,-159 822.8498,-155.5001 822.8499,-162.5001"/>
</g>
<!-- TodoListComponent -->
<g id="node9" class="node">
<title>TodoListComponent</title>
<polygon fill="#ffffb3" stroke="#000000" points="512.1638,-122 379.8362,-122 379.8362,-86 512.1638,-86 512.1638,-122"/>
<text text-anchor="middle" x="446" y="-99.8" font-family="Times,serif" font-size="14.00" fill="#000000">TodoListComponent</text>
</g>
<!-- TodoListComponent&#45;&gt;DashboardModule -->
<g id="edge9" class="edge">
<title>TodoListComponent&#45;&gt;DashboardModule</title>
<path fill="none" stroke="#000000" d="M446,-122.2667C446,-140.5552 446,-166 446,-166 446,-166 822.7156,-166 822.7156,-166"/>
<polygon fill="#000000" stroke="#000000" points="822.7156,-169.5001 832.7156,-166 822.7156,-162.5001 822.7156,-169.5001"/>
</g>
<!-- DashboardComponent  -->
<g id="node11" class="node">
<title>DashboardComponent </title>
<polygon fill="#fb8072" stroke="#000000" points="965.9742,-252 820.0258,-252 820.0258,-216 965.9742,-216 965.9742,-252"/>
<text text-anchor="middle" x="893" y="-229.8" font-family="Times,serif" font-size="14.00" fill="#000000">DashboardComponent </text>
</g>
<!-- DashboardModule&#45;&gt;DashboardComponent  -->
<g id="edge10" class="edge">
<title>DashboardModule&#45;&gt;DashboardComponent </title>
<path fill="none" stroke="#000000" stroke-dasharray="5,2" d="M872.9682,-187.1061C872.9682,-187.1061 872.9682,-205.991 872.9682,-205.991"/>
<polygon fill="#000000" stroke="#000000" points="869.4683,-205.9909 872.9682,-215.991 876.4683,-205.991 869.4683,-205.9909"/>
</g>
<!-- DashboardModule&#45;&gt;DashboardComponent  -->
<g id="edge11" class="edge">
<title>DashboardModule&#45;&gt;DashboardComponent </title>
<path fill="none" stroke="#000000" stroke-dasharray="1,5" d="M913.0318,-187.1061C913.0318,-187.1061 913.0318,-205.991 913.0318,-205.991"/>
<polygon fill="#000000" stroke="#000000" points="909.5319,-205.9909 913.0318,-215.991 916.5319,-205.991 909.5319,-205.9909"/>
</g>
<!-- DashboardService -->
<g id="node12" class="node">
<title>DashboardService</title>
<ellipse fill="#fdb462" stroke="#000000" cx="274" cy="-104" rx="81.6423" ry="18"/>
<text text-anchor="middle" x="274" y="-99.8" font-family="Times,serif" font-size="14.00" fill="#000000">DashboardService</text>
</g>
<!-- DashboardService&#45;&gt;DashboardModule -->
<g id="edge12" class="edge">
<title>DashboardService&#45;&gt;DashboardModule</title>
<path fill="none" stroke="#000000" d="M274,-122.1289C274,-142.5724 274,-173 274,-173 274,-173 822.8032,-173 822.8032,-173"/>
<polygon fill="#000000" stroke="#000000" points="822.8032,-176.5001 832.8032,-173 822.8032,-169.5001 822.8032,-176.5001"/>
</g>
<!-- TodoListService -->
<g id="node13" class="node">
<title>TodoListService</title>
<ellipse fill="#fdb462" stroke="#000000" cx="99" cy="-104" rx="75.2983" ry="18"/>
<text text-anchor="middle" x="99" y="-99.8" font-family="Times,serif" font-size="14.00" fill="#000000">TodoListService</text>
</g>
<!-- TodoListService&#45;&gt;DashboardModule -->
<g id="edge13" class="edge">
<title>TodoListService&#45;&gt;DashboardModule</title>
<path fill="none" stroke="#000000" d="M99,-122.0109C99,-144.4852 99,-180 99,-180 99,-180 822.6693,-180 822.6693,-180"/>
<polygon fill="#000000" stroke="#000000" points="822.6693,-183.5001 832.6693,-180 822.6692,-176.5001 822.6693,-183.5001"/>
</g>
</g>
</svg>
