<?xml version="1.0" encoding="UTF-8" standalone="no"?>
<!DOCTYPE svg PUBLIC "-//W3C//DTD SVG 1.1//EN"
 "http://www.w3.org/Graphics/SVG/1.1/DTD/svg11.dtd">
<!-- Generated by graphviz version 2.40.1 (20161225.0304)
 -->
<!-- Title: dependencies Pages: 1 -->
<svg width="2546pt" height="284pt"
 viewBox="0.00 0.00 2546.00 284.00" xmlns="http://www.w3.org/2000/svg" xmlns:xlink="http://www.w3.org/1999/xlink">
<g id="graph0" class="graph" transform="scale(1 1) rotate(0) translate(4 280)">
<title>dependencies</title>
<polygon fill="#ffffff" stroke="transparent" points="-4,4 -4,-280 2542,-280 2542,4 -4,4"/>
<text text-anchor="start" x="1248.0091" y="-42.4" font-family="sans-serif" font-weight="bold" font-size="14.00" fill="#000000">Legend</text>
<polygon fill="#ffffb3" stroke="transparent" points="1035,-10 1035,-30 1055,-30 1055,-10 1035,-10"/>
<text text-anchor="start" x="1058.629" y="-15.4" font-family="sans-serif" font-size="14.00" fill="#000000"> &#160;Declarations</text>
<polygon fill="#8dd3c7" stroke="transparent" points="1148,-10 1148,-30 1168,-30 1168,-10 1148,-10"/>
<text text-anchor="start" x="1171.7251" y="-15.4" font-family="sans-serif" font-size="14.00" fill="#000000"> &#160;Module</text>
<polygon fill="#80b1d3" stroke="transparent" points="1234,-10 1234,-30 1254,-30 1254,-10 1234,-10"/>
<text text-anchor="start" x="1257.7812" y="-15.4" font-family="sans-serif" font-size="14.00" fill="#000000"> &#160;Bootstrap</text>
<polygon fill="#fdb462" stroke="transparent" points="1331,-10 1331,-30 1351,-30 1351,-10 1331,-10"/>
<text text-anchor="start" x="1354.6732" y="-15.4" font-family="sans-serif" font-size="14.00" fill="#000000"> &#160;Providers</text>
<polygon fill="#fb8072" stroke="transparent" points="1427,-10 1427,-30 1447,-30 1447,-10 1427,-10"/>
<text text-anchor="start" x="1450.7258" y="-15.4" font-family="sans-serif" font-size="14.00" fill="#000000"> &#160;Exports</text>
<g id="clust1" class="cluster">
<title>cluster_AppModule</title>
<polygon fill="none" stroke="#000000" stroke-dasharray="1,5" points="8,-70 8,-268 2530,-268 2530,-70 8,-70"/>
</g>
<g id="clust2" class="cluster">
<title>cluster_AppModule_declarations</title>
<polygon fill="none" stroke="#000000" points="1196,-78 1196,-130 2522,-130 2522,-78 1196,-78"/>
</g>
<g id="clust12" class="cluster">
<title>cluster_AppModule_imports</title>
<polygon fill="none" stroke="#000000" points="1052,-78 1052,-130 1188,-130 1188,-78 1052,-78"/>
</g>
<g id="clust14" class="cluster">
<title>cluster_AppModule_bootstrap</title>
<polygon fill="none" stroke="#000000" points="1200,-208 1200,-260 1324,-260 1324,-208 1200,-208"/>
</g>
<g id="clust15" class="cluster">
<title>cluster_AppModule_providers</title>
<polygon fill="none" stroke="#000000" points="16,-78 16,-130 1044,-130 1044,-78 16,-78"/>
</g>
<!-- AppComponent -->
<g id="node1" class="node">
<title>AppComponent</title>
<polygon fill="#ffffb3" stroke="#000000" points="2513.9399,-122 2408.0601,-122 2408.0601,-86 2513.9399,-86 2513.9399,-122"/>
<text text-anchor="middle" x="2461" y="-99.8" font-family="Times,serif" font-size="14.00" fill="#000000">AppComponent</text>
</g>
<!-- AppModule -->
<g id="node10" class="node">
<title>AppModule</title>
<polygon fill="#8dd3c7" stroke="#000000" points="1303.6571,-187 1300.6571,-191 1279.6571,-191 1276.6571,-187 1220.3429,-187 1220.3429,-151 1303.6571,-151 1303.6571,-187"/>
<text text-anchor="middle" x="1262" y="-164.8" font-family="Times,serif" font-size="14.00" fill="#000000">AppModule</text>
</g>
<!-- AppComponent&#45;&gt;AppModule -->
<g id="edge1" class="edge">
<title>AppComponent&#45;&gt;AppModule</title>
<path fill="none" stroke="#000000" d="M2461,-122.3228C2461,-145.6602 2461,-183 2461,-183 2461,-183 1313.97,-183 1313.97,-183"/>
<polygon fill="#000000" stroke="#000000" points="1313.97,-179.5001 1303.97,-183 1313.97,-186.5001 1313.97,-179.5001"/>
</g>
<!-- LoginComponent -->
<g id="node2" class="node">
<title>LoginComponent</title>
<polygon fill="#ffffb3" stroke="#000000" points="2390.2758,-122 2275.7242,-122 2275.7242,-86 2390.2758,-86 2390.2758,-122"/>
<text text-anchor="middle" x="2333" y="-99.8" font-family="Times,serif" font-size="14.00" fill="#000000">LoginComponent</text>
</g>
<!-- LoginComponent&#45;&gt;AppModule -->
<g id="edge2" class="edge">
<title>LoginComponent&#45;&gt;AppModule</title>
<path fill="none" stroke="#000000" d="M2333,-122.1554C2333,-144.3519 2333,-179 2333,-179 2333,-179 1313.9845,-179 1313.9845,-179"/>
<polygon fill="#000000" stroke="#000000" points="1313.9845,-175.5001 1303.9845,-179 1313.9844,-182.5001 1313.9845,-175.5001"/>
</g>
<!-- EditEventComponent -->
<g id="node3" class="node">
<title>EditEventComponent</title>
<polygon fill="#ffffb3" stroke="#000000" points="2257.8244,-122 2120.1756,-122 2120.1756,-86 2257.8244,-86 2257.8244,-122"/>
<text text-anchor="middle" x="2189" y="-99.8" font-family="Times,serif" font-size="14.00" fill="#000000">EditEventComponent</text>
</g>
<!-- EditEventComponent&#45;&gt;AppModule -->
<g id="edge3" class="edge">
<title>EditEventComponent&#45;&gt;AppModule</title>
<path fill="none" stroke="#000000" d="M2189,-122.2843C2189,-143.3211 2189,-175 2189,-175 2189,-175 1313.9356,-175 1313.9356,-175"/>
<polygon fill="#000000" stroke="#000000" points="1313.9357,-171.5001 1303.9356,-175 1313.9356,-178.5001 1313.9357,-171.5001"/>
</g>
<!-- ComboBoxComponent -->
<g id="node4" class="node">
<title>ComboBoxComponent</title>
<polygon fill="#ffffb3" stroke="#000000" points="2101.8962,-122 1956.1038,-122 1956.1038,-86 2101.8962,-86 2101.8962,-122"/>
<text text-anchor="middle" x="2029" y="-99.8" font-family="Times,serif" font-size="14.00" fill="#000000">ComboBoxComponent</text>
</g>
<!-- ComboBoxComponent&#45;&gt;AppModule -->
<g id="edge4" class="edge">
<title>ComboBoxComponent&#45;&gt;AppModule</title>
<path fill="none" stroke="#000000" d="M2029,-122.308C2029,-142.1455 2029,-171 2029,-171 2029,-171 1313.7819,-171 1313.7819,-171"/>
<polygon fill="#000000" stroke="#000000" points="1313.782,-167.5001 1303.7819,-171 1313.7819,-174.5001 1313.782,-167.5001"/>
</g>
<!-- NotFoundComponent -->
<g id="node5" class="node">
<title>NotFoundComponent</title>
<polygon fill="#ffffb3" stroke="#000000" points="1938.1122,-122 1799.8878,-122 1799.8878,-86 1938.1122,-86 1938.1122,-122"/>
<text text-anchor="middle" x="1869" y="-99.8" font-family="Times,serif" font-size="14.00" fill="#000000">NotFoundComponent</text>
</g>
<!-- NotFoundComponent&#45;&gt;AppModule -->
<g id="edge5" class="edge">
<title>NotFoundComponent&#45;&gt;AppModule</title>
<path fill="none" stroke="#000000" d="M1869,-122.2222C1869,-140.8285 1869,-167 1869,-167 1869,-167 1313.7216,-167 1313.7216,-167"/>
<polygon fill="#000000" stroke="#000000" points="1313.7216,-163.5001 1303.7216,-167 1313.7215,-170.5001 1313.7216,-163.5001"/>
</g>
<!-- LocationInput -->
<g id="node6" class="node">
<title>LocationInput</title>
<polygon fill="#ffffb3" stroke="#000000" points="1781.8147,-122 1686.1853,-122 1686.1853,-86 1781.8147,-86 1781.8147,-122"/>
<text text-anchor="middle" x="1734" y="-99.8" font-family="Times,serif" font-size="14.00" fill="#000000">LocationInput</text>
</g>
<!-- LocationInput&#45;&gt;AppModule -->
<g id="edge6" class="edge">
<title>LocationInput&#45;&gt;AppModule</title>
<path fill="none" stroke="#000000" d="M1734,-122.0225C1734,-139.3734 1734,-163 1734,-163 1734,-163 1313.8869,-163 1313.8869,-163"/>
<polygon fill="#000000" stroke="#000000" points="1313.8869,-159.5001 1303.8869,-163 1313.8868,-166.5001 1313.8869,-159.5001"/>
</g>
<!-- CreateGroupComponent -->
<g id="node7" class="node">
<title>CreateGroupComponent</title>
<polygon fill="#ffffb3" stroke="#000000" points="1668.6316,-122 1515.3684,-122 1515.3684,-86 1668.6316,-86 1668.6316,-122"/>
<text text-anchor="middle" x="1592" y="-99.8" font-family="Times,serif" font-size="14.00" fill="#000000">CreateGroupComponent</text>
</g>
<!-- CreateGroupComponent&#45;&gt;AppModule -->
<g id="edge7" class="edge">
<title>CreateGroupComponent&#45;&gt;AppModule</title>
<path fill="none" stroke="#000000" d="M1592,-122.0091C1592,-138.0494 1592,-159 1592,-159 1592,-159 1313.7947,-159 1313.7947,-159"/>
<polygon fill="#000000" stroke="#000000" points="1313.7948,-155.5001 1303.7947,-159 1313.7947,-162.5001 1313.7948,-155.5001"/>
</g>
<!-- MemberFormComponent -->
<g id="node8" class="node">
<title>MemberFormComponent</title>
<polygon fill="#ffffb3" stroke="#000000" points="1497.5912,-122 1338.4088,-122 1338.4088,-86 1497.5912,-86 1497.5912,-122"/>
<text text-anchor="middle" x="1418" y="-99.8" font-family="Times,serif" font-size="14.00" fill="#000000">MemberFormComponent</text>
</g>
<!-- MemberFormComponent&#45;&gt;AppModule -->
<g id="edge8" class="edge">
<title>MemberFormComponent&#45;&gt;AppModule</title>
<path fill="none" stroke="#000000" d="M1418,-122.1243C1418,-136.7832 1418,-155 1418,-155 1418,-155 1313.8051,-155 1313.8051,-155"/>
<polygon fill="#000000" stroke="#000000" points="1313.8052,-151.5001 1303.8051,-155 1313.8051,-158.5001 1313.8052,-151.5001"/>
</g>
<!-- GroupSelectForm -->
<g id="node9" class="node">
<title>GroupSelectForm</title>
<polygon fill="#ffffb3" stroke="#000000" points="1320.309,-122 1203.691,-122 1203.691,-86 1320.309,-86 1320.309,-122"/>
<text text-anchor="middle" x="1262" y="-99.8" font-family="Times,serif" font-size="14.00" fill="#000000">GroupSelectForm</text>
</g>
<!-- GroupSelectForm&#45;&gt;AppModule -->
<g id="edge9" class="edge">
<title>GroupSelectForm&#45;&gt;AppModule</title>
<path fill="none" stroke="#000000" d="M1262,-122.1061C1262,-122.1061 1262,-140.991 1262,-140.991"/>
<polygon fill="#000000" stroke="#000000" points="1258.5001,-140.9909 1262,-150.991 1265.5001,-140.991 1258.5001,-140.9909"/>
</g>
<!-- AppComponent  -->
<g id="node12" class="node">
<title>AppComponent </title>
<polygon fill="#80b1d3" stroke="#000000" points="1316.439,-252 1207.561,-252 1207.561,-216 1316.439,-216 1316.439,-252"/>
<text text-anchor="middle" x="1262" y="-229.8" font-family="Times,serif" font-size="14.00" fill="#000000">AppComponent </text>
</g>
<!-- AppModule&#45;&gt;AppComponent  -->
<g id="edge11" class="edge">
<title>AppModule&#45;&gt;AppComponent </title>
<path fill="none" stroke="#000000" stroke-dasharray="1,5" d="M1262,-187.1061C1262,-187.1061 1262,-205.991 1262,-205.991"/>
<polygon fill="#000000" stroke="#000000" points="1258.5001,-205.9909 1262,-215.991 1265.5001,-205.991 1258.5001,-205.9909"/>
</g>
<!-- DashboardModule -->
<g id="node11" class="node">
<title>DashboardModule</title>
<polygon fill="#8dd3c7" stroke="#000000" points="1180.191,-122 1177.191,-126 1156.191,-126 1153.191,-122 1059.809,-122 1059.809,-86 1180.191,-86 1180.191,-122"/>
<text text-anchor="middle" x="1120" y="-99.8" font-family="Times,serif" font-size="14.00" fill="#000000">DashboardModule</text>
</g>
<!-- DashboardModule&#45;&gt;AppModule -->
<g id="edge10" class="edge">
<title>DashboardModule&#45;&gt;AppModule</title>
<path fill="none" stroke="#000000" d="M1120,-122.1243C1120,-136.7832 1120,-155 1120,-155 1120,-155 1210.1633,-155 1210.1633,-155"/>
<polygon fill="#000000" stroke="#000000" points="1210.1634,-158.5001 1220.1633,-155 1210.1633,-151.5001 1210.1634,-158.5001"/>
</g>
<!-- CoreCacheService -->
<g id="node13" class="node">
<title>CoreCacheService</title>
<ellipse fill="#fdb462" stroke="#000000" cx="953" cy="-104" rx="82.782" ry="18"/>
<text text-anchor="middle" x="953" y="-99.8" font-family="Times,serif" font-size="14.00" fill="#000000">CoreCacheService</text>
</g>
<!-- CoreCacheService&#45;&gt;AppModule -->
<g id="edge12" class="edge">
<title>CoreCacheService&#45;&gt;AppModule</title>
<path fill="none" stroke="#000000" d="M953,-122.0091C953,-138.0494 953,-159 953,-159 953,-159 1210.3269,-159 1210.3269,-159"/>
<polygon fill="#000000" stroke="#000000" points="1210.3269,-162.5001 1220.3269,-159 1210.3269,-155.5001 1210.3269,-162.5001"/>
</g>
<!-- AuthGuard -->
<g id="node14" class="node">
<title>AuthGuard</title>
<ellipse fill="#fdb462" stroke="#000000" cx="798" cy="-104" rx="54.4566" ry="18"/>
<text text-anchor="middle" x="798" y="-99.8" font-family="Times,serif" font-size="14.00" fill="#000000">AuthGuard</text>
</g>
<!-- AuthGuard&#45;&gt;AppModule -->
<g id="edge13" class="edge">
<title>AuthGuard&#45;&gt;AppModule</title>
<path fill="none" stroke="#000000" d="M798,-122.0225C798,-139.3734 798,-163 798,-163 798,-163 1210.0047,-163 1210.0047,-163"/>
<polygon fill="#000000" stroke="#000000" points="1210.0048,-166.5001 1220.0047,-163 1210.0047,-159.5001 1210.0048,-166.5001"/>
</g>
<!-- AuthService -->
<g id="node15" class="node">
<title>AuthService</title>
<ellipse fill="#fdb462" stroke="#000000" cx="666" cy="-104" rx="59.1083" ry="18"/>
<text text-anchor="middle" x="666" y="-99.8" font-family="Times,serif" font-size="14.00" fill="#000000">AuthService</text>
</g>
<!-- AuthService&#45;&gt;AppModule -->
<g id="edge14" class="edge">
<title>AuthService&#45;&gt;AppModule</title>
<path fill="none" stroke="#000000" d="M666,-122.2222C666,-140.8285 666,-167 666,-167 666,-167 1210.0904,-167 1210.0904,-167"/>
<polygon fill="#000000" stroke="#000000" points="1210.0905,-170.5001 1220.0904,-167 1210.0904,-163.5001 1210.0905,-170.5001"/>
</g>
<!-- EventService -->
<g id="node16" class="node">
<title>EventService</title>
<ellipse fill="#fdb462" stroke="#000000" cx="526" cy="-104" rx="62.5373" ry="18"/>
<text text-anchor="middle" x="526" y="-99.8" font-family="Times,serif" font-size="14.00" fill="#000000">EventService</text>
</g>
<!-- EventService&#45;&gt;AppModule -->
<g id="edge15" class="edge">
<title>EventService&#45;&gt;AppModule</title>
<path fill="none" stroke="#000000" d="M526,-122.308C526,-142.1455 526,-171 526,-171 526,-171 1210.3207,-171 1210.3207,-171"/>
<polygon fill="#000000" stroke="#000000" points="1210.3207,-174.5001 1220.3207,-171 1210.3206,-167.5001 1210.3207,-174.5001"/>
</g>
<!-- SessionService -->
<g id="node17" class="node">
<title>SessionService</title>
<ellipse fill="#fdb462" stroke="#000000" cx="376" cy="-104" rx="69.4974" ry="18"/>
<text text-anchor="middle" x="376" y="-99.8" font-family="Times,serif" font-size="14.00" fill="#000000">SessionService</text>
</g>
<!-- SessionService&#45;&gt;AppModule -->
<g id="edge16" class="edge">
<title>SessionService&#45;&gt;AppModule</title>
<path fill="none" stroke="#000000" d="M376,-122.2843C376,-143.3211 376,-175 376,-175 376,-175 1210.1591,-175 1210.1591,-175"/>
<polygon fill="#000000" stroke="#000000" points="1210.1591,-178.5001 1220.1591,-175 1210.159,-171.5001 1210.1591,-178.5001"/>
</g>
<!-- UserService -->
<g id="node18" class="node">
<title>UserService</title>
<ellipse fill="#fdb462" stroke="#000000" cx="230" cy="-104" rx="58.4415" ry="18"/>
<text text-anchor="middle" x="230" y="-99.8" font-family="Times,serif" font-size="14.00" fill="#000000">UserService</text>
</g>
<!-- UserService&#45;&gt;AppModule -->
<g id="edge17" class="edge">
<title>UserService&#45;&gt;AppModule</title>
<path fill="none" stroke="#000000" d="M230,-122.1554C230,-144.3519 230,-179 230,-179 230,-179 1210.2662,-179 1210.2662,-179"/>
<polygon fill="#000000" stroke="#000000" points="1210.2662,-182.5001 1220.2662,-179 1210.2662,-175.5001 1210.2662,-182.5001"/>
</g>
<!-- GroupService -->
<g id="node19" class="node">
<title>GroupService</title>
<ellipse fill="#fdb462" stroke="#000000" cx="89" cy="-104" rx="64.8273" ry="18"/>
<text text-anchor="middle" x="89" y="-99.8" font-family="Times,serif" font-size="14.00" fill="#000000">GroupService</text>
</g>
<!-- GroupService&#45;&gt;AppModule -->
<g id="edge18" class="edge">
<title>GroupService&#45;&gt;AppModule</title>
<path fill="none" stroke="#000000" d="M89,-122.3228C89,-145.6602 89,-183 89,-183 89,-183 1210.2523,-183 1210.2523,-183"/>
<polygon fill="#000000" stroke="#000000" points="1210.2523,-186.5001 1220.2523,-183 1210.2523,-179.5001 1210.2523,-186.5001"/>
</g>
</g>
</svg>
