<?xml version="1.0" encoding="UTF-8" standalone="no"?>
<!DOCTYPE svg PUBLIC "-//W3C//DTD SVG 1.1//EN"
 "http://www.w3.org/Graphics/SVG/1.1/DTD/svg11.dtd">
<!-- Generated by graphviz version 2.40.1 (20161225.0304)
 -->
<!-- Title: dependencies Pages: 1 -->
<svg width="2684pt" height="284pt"
 viewBox="0.00 0.00 2684.00 284.00" xmlns="http://www.w3.org/2000/svg" xmlns:xlink="http://www.w3.org/1999/xlink">
<g id="graph0" class="graph" transform="scale(1 1) rotate(0) translate(4 280)">
<title>dependencies</title>
<polygon fill="#ffffff" stroke="transparent" points="-4,4 -4,-280 2680,-280 2680,4 -4,4"/>
<text text-anchor="start" x="1317.0091" y="-42.4" font-family="sans-serif" font-weight="bold" font-size="14.00" fill="#000000">Legend</text>
<polygon fill="#ffffb3" stroke="transparent" points="1104,-10 1104,-30 1124,-30 1124,-10 1104,-10"/>
<text text-anchor="start" x="1127.629" y="-15.4" font-family="sans-serif" font-size="14.00" fill="#000000"> &#160;Declarations</text>
<polygon fill="#8dd3c7" stroke="transparent" points="1217,-10 1217,-30 1237,-30 1237,-10 1217,-10"/>
<text text-anchor="start" x="1240.7251" y="-15.4" font-family="sans-serif" font-size="14.00" fill="#000000"> &#160;Module</text>
<polygon fill="#80b1d3" stroke="transparent" points="1303,-10 1303,-30 1323,-30 1323,-10 1303,-10"/>
<text text-anchor="start" x="1326.7812" y="-15.4" font-family="sans-serif" font-size="14.00" fill="#000000"> &#160;Bootstrap</text>
<polygon fill="#fdb462" stroke="transparent" points="1400,-10 1400,-30 1420,-30 1420,-10 1400,-10"/>
<text text-anchor="start" x="1423.6732" y="-15.4" font-family="sans-serif" font-size="14.00" fill="#000000"> &#160;Providers</text>
<polygon fill="#fb8072" stroke="transparent" points="1496,-10 1496,-30 1516,-30 1516,-10 1496,-10"/>
<text text-anchor="start" x="1519.7258" y="-15.4" font-family="sans-serif" font-size="14.00" fill="#000000"> &#160;Exports</text>
<g id="clust1" class="cluster">
<title>cluster_AppModule</title>
<polygon fill="none" stroke="#000000" stroke-dasharray="1,5" points="8,-70 8,-268 2668,-268 2668,-70 8,-70"/>
</g>
<g id="clust2" class="cluster">
<title>cluster_AppModule_declarations</title>
<polygon fill="none" stroke="#000000" points="1334,-78 1334,-130 2660,-130 2660,-78 1334,-78"/>
</g>
<g id="clust12" class="cluster">
<title>cluster_AppModule_imports</title>
<polygon fill="none" stroke="#000000" points="1052,-78 1052,-130 1326,-130 1326,-78 1052,-78"/>
</g>
<g id="clust14" class="cluster">
<title>cluster_AppModule_bootstrap</title>
<polygon fill="none" stroke="#000000" points="1267,-208 1267,-260 1391,-260 1391,-208 1267,-208"/>
</g>
<g id="clust15" class="cluster">
<title>cluster_AppModule_providers</title>
<polygon fill="none" stroke="#000000" points="16,-78 16,-130 1044,-130 1044,-78 16,-78"/>
</g>
<!-- AppComponent -->
<g id="node1" class="node">
<title>AppComponent</title>
<polygon fill="#ffffb3" stroke="#000000" points="2651.9399,-122 2546.0601,-122 2546.0601,-86 2651.9399,-86 2651.9399,-122"/>
<text text-anchor="middle" x="2599" y="-99.8" font-family="Times,serif" font-size="14.00" fill="#000000">AppComponent</text>
</g>
<!-- AppModule -->
<g id="node10" class="node">
<title>AppModule</title>
<polygon fill="#8dd3c7" stroke="#000000" points="1370.6571,-187 1367.6571,-191 1346.6571,-191 1343.6571,-187 1287.3429,-187 1287.3429,-151 1370.6571,-151 1370.6571,-187"/>
<text text-anchor="middle" x="1329" y="-164.8" font-family="Times,serif" font-size="14.00" fill="#000000">AppModule</text>
</g>
<!-- AppComponent&#45;&gt;AppModule -->
<g id="edge1" class="edge">
<title>AppComponent&#45;&gt;AppModule</title>
<path fill="none" stroke="#000000" d="M2599,-122.3228C2599,-145.6602 2599,-183 2599,-183 2599,-183 1380.8934,-183 1380.8934,-183"/>
<polygon fill="#000000" stroke="#000000" points="1380.8935,-179.5001 1370.8934,-183 1380.8934,-186.5001 1380.8935,-179.5001"/>
</g>
<!-- LoginComponent -->
<g id="node2" class="node">
<title>LoginComponent</title>
<polygon fill="#ffffb3" stroke="#000000" points="2528.2758,-122 2413.7242,-122 2413.7242,-86 2528.2758,-86 2528.2758,-122"/>
<text text-anchor="middle" x="2471" y="-99.8" font-family="Times,serif" font-size="14.00" fill="#000000">LoginComponent</text>
</g>
<!-- LoginComponent&#45;&gt;AppModule -->
<g id="edge2" class="edge">
<title>LoginComponent&#45;&gt;AppModule</title>
<path fill="none" stroke="#000000" d="M2471,-122.1554C2471,-144.3519 2471,-179 2471,-179 2471,-179 1380.6583,-179 1380.6583,-179"/>
<polygon fill="#000000" stroke="#000000" points="1380.6583,-175.5001 1370.6583,-179 1380.6582,-182.5001 1380.6583,-175.5001"/>
</g>
<!-- EditEventComponent -->
<g id="node3" class="node">
<title>EditEventComponent</title>
<polygon fill="#ffffb3" stroke="#000000" points="2395.8244,-122 2258.1756,-122 2258.1756,-86 2395.8244,-86 2395.8244,-122"/>
<text text-anchor="middle" x="2327" y="-99.8" font-family="Times,serif" font-size="14.00" fill="#000000">EditEventComponent</text>
</g>
<!-- EditEventComponent&#45;&gt;AppModule -->
<g id="edge3" class="edge">
<title>EditEventComponent&#45;&gt;AppModule</title>
<path fill="none" stroke="#000000" d="M2327,-122.2843C2327,-143.3211 2327,-175 2327,-175 2327,-175 1380.9283,-175 1380.9283,-175"/>
<polygon fill="#000000" stroke="#000000" points="1380.9283,-171.5001 1370.9283,-175 1380.9282,-178.5001 1380.9283,-171.5001"/>
</g>
<!-- ComboBoxComponent -->
<g id="node4" class="node">
<title>ComboBoxComponent</title>
<polygon fill="#ffffb3" stroke="#000000" points="2239.8962,-122 2094.1038,-122 2094.1038,-86 2239.8962,-86 2239.8962,-122"/>
<text text-anchor="middle" x="2167" y="-99.8" font-family="Times,serif" font-size="14.00" fill="#000000">ComboBoxComponent</text>
</g>
<!-- ComboBoxComponent&#45;&gt;AppModule -->
<g id="edge4" class="edge">
<title>ComboBoxComponent&#45;&gt;AppModule</title>
<path fill="none" stroke="#000000" d="M2167,-122.308C2167,-142.1455 2167,-171 2167,-171 2167,-171 1380.8433,-171 1380.8433,-171"/>
<polygon fill="#000000" stroke="#000000" points="1380.8433,-167.5001 1370.8433,-171 1380.8432,-174.5001 1380.8433,-167.5001"/>
</g>
<!-- NotFoundComponent -->
<g id="node5" class="node">
<title>NotFoundComponent</title>
<polygon fill="#ffffb3" stroke="#000000" points="2076.1122,-122 1937.8878,-122 1937.8878,-86 2076.1122,-86 2076.1122,-122"/>
<text text-anchor="middle" x="2007" y="-99.8" font-family="Times,serif" font-size="14.00" fill="#000000">NotFoundComponent</text>
</g>
<!-- NotFoundComponent&#45;&gt;AppModule -->
<g id="edge5" class="edge">
<title>NotFoundComponent&#45;&gt;AppModule</title>
<path fill="none" stroke="#000000" d="M2007,-122.2222C2007,-140.8285 2007,-167 2007,-167 2007,-167 1380.9003,-167 1380.9003,-167"/>
<polygon fill="#000000" stroke="#000000" points="1380.9003,-163.5001 1370.9003,-167 1380.9002,-170.5001 1380.9003,-163.5001"/>
</g>
<!-- LocationInput -->
<g id="node6" class="node">
<title>LocationInput</title>
<polygon fill="#ffffb3" stroke="#000000" points="1919.8147,-122 1824.1853,-122 1824.1853,-86 1919.8147,-86 1919.8147,-122"/>
<text text-anchor="middle" x="1872" y="-99.8" font-family="Times,serif" font-size="14.00" fill="#000000">LocationInput</text>
</g>
<!-- LocationInput&#45;&gt;AppModule -->
<g id="edge6" class="edge">
<title>LocationInput&#45;&gt;AppModule</title>
<path fill="none" stroke="#000000" d="M1872,-122.0225C1872,-139.3734 1872,-163 1872,-163 1872,-163 1380.7067,-163 1380.7067,-163"/>
<polygon fill="#000000" stroke="#000000" points="1380.7067,-159.5001 1370.7067,-163 1380.7066,-166.5001 1380.7067,-159.5001"/>
</g>
<!-- CreateGroupComponent -->
<g id="node7" class="node">
<title>CreateGroupComponent</title>
<polygon fill="#ffffb3" stroke="#000000" points="1806.6316,-122 1653.3684,-122 1653.3684,-86 1806.6316,-86 1806.6316,-122"/>
<text text-anchor="middle" x="1730" y="-99.8" font-family="Times,serif" font-size="14.00" fill="#000000">CreateGroupComponent</text>
</g>
<!-- CreateGroupComponent&#45;&gt;AppModule -->
<g id="edge7" class="edge">
<title>CreateGroupComponent&#45;&gt;AppModule</title>
<path fill="none" stroke="#000000" d="M1730,-122.0091C1730,-138.0494 1730,-159 1730,-159 1730,-159 1380.7792,-159 1380.7792,-159"/>
<polygon fill="#000000" stroke="#000000" points="1380.7793,-155.5001 1370.7792,-159 1380.7792,-162.5001 1380.7793,-155.5001"/>
</g>
<!-- MemberFormComponent -->
<g id="node8" class="node">
<title>MemberFormComponent</title>
<polygon fill="#ffffb3" stroke="#000000" points="1635.5912,-122 1476.4088,-122 1476.4088,-86 1635.5912,-86 1635.5912,-122"/>
<text text-anchor="middle" x="1556" y="-99.8" font-family="Times,serif" font-size="14.00" fill="#000000">MemberFormComponent</text>
</g>
<!-- MemberFormComponent&#45;&gt;AppModule -->
<g id="edge8" class="edge">
<title>MemberFormComponent&#45;&gt;AppModule</title>
<path fill="none" stroke="#000000" d="M1556,-122.1243C1556,-136.7832 1556,-155 1556,-155 1556,-155 1380.8998,-155 1380.8998,-155"/>
<polygon fill="#000000" stroke="#000000" points="1380.8999,-151.5001 1370.8998,-155 1380.8998,-158.5001 1380.8999,-151.5001"/>
</g>
<!-- GroupSelectForm -->
<g id="node9" class="node">
<title>GroupSelectForm</title>
<polygon fill="#ffffb3" stroke="#000000" points="1458.309,-122 1341.691,-122 1341.691,-86 1458.309,-86 1458.309,-122"/>
<text text-anchor="middle" x="1400" y="-99.8" font-family="Times,serif" font-size="14.00" fill="#000000">GroupSelectForm</text>
</g>
<!-- GroupSelectForm&#45;&gt;AppModule -->
<g id="edge9" class="edge">
<title>GroupSelectForm&#45;&gt;AppModule</title>
<path fill="none" stroke="#000000" d="M1356.3369,-122.1061C1356.3369,-122.1061 1356.3369,-140.991 1356.3369,-140.991"/>
<polygon fill="#000000" stroke="#000000" points="1352.837,-140.9909 1356.3369,-150.991 1359.837,-140.991 1352.837,-140.9909"/>
</g>
<!-- AppComponent  -->
<g id="node13" class="node">
<title>AppComponent </title>
<polygon fill="#80b1d3" stroke="#000000" points="1383.439,-252 1274.561,-252 1274.561,-216 1383.439,-216 1383.439,-252"/>
<text text-anchor="middle" x="1329" y="-229.8" font-family="Times,serif" font-size="14.00" fill="#000000">AppComponent </text>
</g>
<!-- AppModule&#45;&gt;AppComponent  -->
<g id="edge12" class="edge">
<title>AppModule&#45;&gt;AppComponent </title>
<path fill="none" stroke="#000000" stroke-dasharray="1,5" d="M1329,-187.1061C1329,-187.1061 1329,-205.991 1329,-205.991"/>
<polygon fill="#000000" stroke="#000000" points="1325.5001,-205.9909 1329,-215.991 1332.5001,-205.991 1325.5001,-205.9909"/>
</g>
<!-- DropdownModule -->
<g id="node11" class="node">
<title>DropdownModule</title>
<polygon fill="#8dd3c7" stroke="#000000" points="1317.9244,-122 1314.9244,-126 1293.9244,-126 1290.9244,-122 1198.0756,-122 1198.0756,-86 1317.9244,-86 1317.9244,-122"/>
<text text-anchor="middle" x="1258" y="-99.8" font-family="Times,serif" font-size="14.00" fill="#000000">DropdownModule</text>
</g>
<!-- DropdownModule&#45;&gt;AppModule -->
<g id="edge10" class="edge">
<title>DropdownModule&#45;&gt;AppModule</title>
<path fill="none" stroke="#000000" d="M1302.4418,-122.1061C1302.4418,-122.1061 1302.4418,-140.991 1302.4418,-140.991"/>
<polygon fill="#000000" stroke="#000000" points="1298.9419,-140.9909 1302.4418,-150.991 1305.9419,-140.991 1298.9419,-140.9909"/>
</g>
<!-- DashboardModule -->
<g id="node12" class="node">
<title>DashboardModule</title>
<polygon fill="#8dd3c7" stroke="#000000" points="1180.191,-122 1177.191,-126 1156.191,-126 1153.191,-122 1059.809,-122 1059.809,-86 1180.191,-86 1180.191,-122"/>
<text text-anchor="middle" x="1120" y="-99.8" font-family="Times,serif" font-size="14.00" fill="#000000">DashboardModule</text>
</g>
<!-- DashboardModule&#45;&gt;AppModule -->
<g id="edge11" class="edge">
<title>DashboardModule&#45;&gt;AppModule</title>
<path fill="none" stroke="#000000" d="M1120,-122.1243C1120,-136.7832 1120,-155 1120,-155 1120,-155 1277.208,-155 1277.208,-155"/>
<polygon fill="#000000" stroke="#000000" points="1277.2081,-158.5001 1287.208,-155 1277.208,-151.5001 1277.2081,-158.5001"/>
</g>
<!-- CoreCacheService -->
<g id="node14" class="node">
<title>CoreCacheService</title>
<ellipse fill="#fdb462" stroke="#000000" cx="953" cy="-104" rx="82.782" ry="18"/>
<text text-anchor="middle" x="953" y="-99.8" font-family="Times,serif" font-size="14.00" fill="#000000">CoreCacheService</text>
</g>
<!-- CoreCacheService&#45;&gt;AppModule -->
<g id="edge13" class="edge">
<title>CoreCacheService&#45;&gt;AppModule</title>
<path fill="none" stroke="#000000" d="M953,-122.0091C953,-138.0494 953,-159 953,-159 953,-159 1277.3248,-159 1277.3248,-159"/>
<polygon fill="#000000" stroke="#000000" points="1277.3248,-162.5001 1287.3248,-159 1277.3248,-155.5001 1277.3248,-162.5001"/>
</g>
<!-- AuthGuard -->
<g id="node15" class="node">
<title>AuthGuard</title>
<ellipse fill="#fdb462" stroke="#000000" cx="798" cy="-104" rx="54.4566" ry="18"/>
<text text-anchor="middle" x="798" y="-99.8" font-family="Times,serif" font-size="14.00" fill="#000000">AuthGuard</text>
</g>
<!-- AuthGuard&#45;&gt;AppModule -->
<g id="edge14" class="edge">
<title>AuthGuard&#45;&gt;AppModule</title>
<path fill="none" stroke="#000000" d="M798,-122.0225C798,-139.3734 798,-163 798,-163 798,-163 1277.3333,-163 1277.3333,-163"/>
<polygon fill="#000000" stroke="#000000" points="1277.3334,-166.5001 1287.3333,-163 1277.3333,-159.5001 1277.3334,-166.5001"/>
</g>
<!-- AuthService -->
<g id="node16" class="node">
<title>AuthService</title>
<ellipse fill="#fdb462" stroke="#000000" cx="666" cy="-104" rx="59.1083" ry="18"/>
<text text-anchor="middle" x="666" y="-99.8" font-family="Times,serif" font-size="14.00" fill="#000000">AuthService</text>
</g>
<!-- AuthService&#45;&gt;AppModule -->
<g id="edge15" class="edge">
<title>AuthService&#45;&gt;AppModule</title>
<path fill="none" stroke="#000000" d="M666,-122.2222C666,-140.8285 666,-167 666,-167 666,-167 1277.2752,-167 1277.2752,-167"/>
<polygon fill="#000000" stroke="#000000" points="1277.2753,-170.5001 1287.2752,-167 1277.2752,-163.5001 1277.2753,-170.5001"/>
</g>
<!-- EventService -->
<g id="node17" class="node">
<title>EventService</title>
<ellipse fill="#fdb462" stroke="#000000" cx="526" cy="-104" rx="62.5373" ry="18"/>
<text text-anchor="middle" x="526" y="-99.8" font-family="Times,serif" font-size="14.00" fill="#000000">EventService</text>
</g>
<!-- EventService&#45;&gt;AppModule -->
<g id="edge16" class="edge">
<title>EventService&#45;&gt;AppModule</title>
<path fill="none" stroke="#000000" d="M526,-122.308C526,-142.1455 526,-171 526,-171 526,-171 1277.2384,-171 1277.2384,-171"/>
<polygon fill="#000000" stroke="#000000" points="1277.2384,-174.5001 1287.2384,-171 1277.2384,-167.5001 1277.2384,-174.5001"/>
</g>
<!-- SessionService -->
<g id="node18" class="node">
<title>SessionService</title>
<ellipse fill="#fdb462" stroke="#000000" cx="376" cy="-104" rx="69.4974" ry="18"/>
<text text-anchor="middle" x="376" y="-99.8" font-family="Times,serif" font-size="14.00" fill="#000000">SessionService</text>
</g>
<!-- SessionService&#45;&gt;AppModule -->
<g id="edge17" class="edge">
<title>SessionService&#45;&gt;AppModule</title>
<path fill="none" stroke="#000000" d="M376,-122.2843C376,-143.3211 376,-175 376,-175 376,-175 1277.1301,-175 1277.1301,-175"/>
<polygon fill="#000000" stroke="#000000" points="1277.1301,-178.5001 1287.1301,-175 1277.13,-171.5001 1277.1301,-178.5001"/>
</g>
<!-- UserService -->
<g id="node19" class="node">
<title>UserService</title>
<ellipse fill="#fdb462" stroke="#000000" cx="230" cy="-104" rx="58.4415" ry="18"/>
<text text-anchor="middle" x="230" y="-99.8" font-family="Times,serif" font-size="14.00" fill="#000000">UserService</text>
</g>
<!-- UserService&#45;&gt;AppModule -->
<g id="edge18" class="edge">
<title>UserService&#45;&gt;AppModule</title>
<path fill="none" stroke="#000000" d="M230,-122.1554C230,-144.3519 230,-179 230,-179 230,-179 1277.2599,-179 1277.2599,-179"/>
<polygon fill="#000000" stroke="#000000" points="1277.2599,-182.5001 1287.2599,-179 1277.2599,-175.5001 1277.2599,-182.5001"/>
</g>
<!-- GroupService -->
<g id="node20" class="node">
<title>GroupService</title>
<ellipse fill="#fdb462" stroke="#000000" cx="89" cy="-104" rx="64.8273" ry="18"/>
<text text-anchor="middle" x="89" y="-99.8" font-family="Times,serif" font-size="14.00" fill="#000000">GroupService</text>
</g>
<!-- GroupService&#45;&gt;AppModule -->
<g id="edge19" class="edge">
<title>GroupService&#45;&gt;AppModule</title>
<path fill="none" stroke="#000000" d="M89,-122.3228C89,-145.6602 89,-183 89,-183 89,-183 1277.0325,-183 1277.0325,-183"/>
<polygon fill="#000000" stroke="#000000" points="1277.0325,-186.5001 1287.0325,-183 1277.0324,-179.5001 1277.0325,-186.5001"/>
</g>
</g>
</svg>
